<?xml version="1.0" encoding="UTF-8" standalone="no"?>
<svg
   xmlns:dc="http://purl.org/dc/elements/1.1/"
   xmlns:cc="http://creativecommons.org/ns#"
   xmlns:rdf="http://www.w3.org/1999/02/22-rdf-syntax-ns#"
   xmlns:svg="http://www.w3.org/2000/svg"
   xmlns="http://www.w3.org/2000/svg"
   xmlns:sodipodi="http://sodipodi.sourceforge.net/DTD/sodipodi-0.dtd"
   xmlns:inkscape="http://www.inkscape.org/namespaces/inkscape"
   viewBox="0 0 16 16"
   id="svg2"
   version="1.1"
   inkscape:version="0.91 r13725"
   sodipodi:docname="lt_preview-render-off.svg"
   width="16"
   height="16">
  <metadata
     id="metadata12">
    <rdf:RDF>
      <cc:Work
         rdf:about="">
        <dc:format>image/svg+xml</dc:format>
        <dc:type
           rdf:resource="http://purl.org/dc/dcmitype/StillImage" />
        <dc:title></dc:title>
      </cc:Work>
    </rdf:RDF>
  </metadata>
  <sodipodi:namedview
     pagecolor="#ffffff"
     bordercolor="#666666"
     borderopacity="1"
     objecttolerance="10"
     gridtolerance="10"
     guidetolerance="10"
     inkscape:pageopacity="0"
     inkscape:pageshadow="2"
     inkscape:window-width="1693"
     inkscape:window-height="1149"
     id="namedview10"
     showgrid="true"
     inkscape:zoom="42.909091"
     inkscape:cx="8.2580712"
     inkscape:cy="8.0451481"
     inkscape:window-x="349"
     inkscape:window-y="150"
     inkscape:window-maximized="0"
     inkscape:current-layer="svg2">
    <inkscape:grid
       type="xygrid"
       id="grid4140" />
  </sodipodi:namedview>
  <defs
     id="defs3051">
    <style
       type="text/css"
       id="current-color-scheme">
      .ColorScheme-Text {
        color:#4d4d4d;
      }
      .ColorScheme-Highlight {
        color:#3daee9;
      }
      .ColorScheme-Background {
        color:#eff0f1;
      }
      .ColorScheme-PositiveText {
        color:#2ecc71;
      }
      .ColorScheme-NeutralText {
        color:#f67400;
      }
      .ColorScheme-NegativeText {
        color:#da4453;
      }
    </style>
  </defs>
  <path class="ColorScheme-Text"
     style="color:currentColor;clip-rule:nonzero;display:inline;overflow:visible;visibility:visible;opacity:1;isolation:auto;mix-blend-mode:normal;color-interpolation:sRGB;color-interpolation-filters:linearRGB;solid-color:currentColor;solid-opacity:1;fill:currentColor;fill-opacity:1;fill-rule:nonzero;stroke:none;stroke-width:1;stroke-linecap:butt;stroke-linejoin:miter;stroke-miterlimit:4;stroke-dasharray:none;stroke-dashoffset:0;stroke-opacity:1;marker:none;marker-start:none;marker-mid:none;marker-end:none;color-rendering:auto;image-rendering:auto;shape-rendering:auto;text-rendering:auto;enable-background:accumulate"
     d="M 5 0.99414062 L 5 3.9941406 L 4 3.9941406 L 4 2.9941406 L 3 2.9941406 L 3 3.9941406 L 2 3.9941406 L 2 4.9941406 L 13.976562 5 L 13.976562 1 L 12.976562 1 L 12.976562 3.9941406 L 12 3.9941406 L 12 2.9941406 L 11 2.9941406 L 11 3.9941406 L 10 3.9941406 L 10 2.9941406 L 9 2.9941406 L 9 3.9941406 L 8 3.9941406 L 8 2.9941406 L 7 2.9941406 L 7 3.9941406 L 6 3.9941406 L 6 0.99414062 L 5 0.99414062 z M 7.5 6 A 4.5 4.5 0 0 0 3 10.5 A 4.5 4.5 0 0 0 7.5 15 A 4.5 4.5 0 0 0 12 10.5 A 4.5 4.5 0 0 0 7.5 6 z M 7.5 7 A 3.5 3.5 0 0 1 11 10.5 A 3.5 3.5 0 0 1 7.5 14 A 3.5 3.5 0 0 1 4 10.5 A 3.5 3.5 0 0 1 7.5 7 z M 6 9 L 6 12 L 9 12 L 9 9 L 6 9 z "
     id="path4145" />
</svg>
