<?xml version="1.0" encoding="UTF-8" standalone="no"?>
<svg
   xmlns:dc="http://purl.org/dc/elements/1.1/"
   xmlns:cc="http://creativecommons.org/ns#"
   xmlns:rdf="http://www.w3.org/1999/02/22-rdf-syntax-ns#"
   xmlns:svg="http://www.w3.org/2000/svg"
   xmlns="http://www.w3.org/2000/svg"
   xmlns:sodipodi="http://sodipodi.sourceforge.net/DTD/sodipodi-0.dtd"
   xmlns:inkscape="http://www.inkscape.org/namespaces/inkscape"
   width="16"
   height="16"
   id="svg2"
   version="1.1"
   inkscape:version="0.91 r13725"
   sodipodi:docname="timeline-use-zone-off.svg">
  <metadata
     id="metadata10">
    <rdf:RDF>
      <cc:Work
         rdf:about="">
        <dc:format>image/svg+xml</dc:format>
        <dc:type
           rdf:resource="http://purl.org/dc/dcmitype/StillImage" />
        <dc:title />
      </cc:Work>
    </rdf:RDF>
  </metadata>
  <sodipodi:namedview
     pagecolor="#ffffff"
     bordercolor="#666666"
     borderopacity="1"
     objecttolerance="10"
     gridtolerance="10"
     guidetolerance="10"
     inkscape:pageopacity="0"
     inkscape:pageshadow="2"
     inkscape:window-width="2166"
     inkscape:window-height="1199"
     id="namedview8"
     showgrid="true"
     inkscape:zoom="42.909091"
     inkscape:cx="3.5729453"
     inkscape:cy="7.545137"
     inkscape:window-x="0"
     inkscape:window-y="0"
     inkscape:window-maximized="0"
     inkscape:current-layer="svg2">
    <inkscape:grid
       type="xygrid"
       id="grid4138" />
  </sodipodi:namedview>
  <defs
     id="defs3051">
    <style
       type="text/css"
       id="current-color-scheme">
      .ColorScheme-Text {
        color:#4d4d4d;
      }
      .ColorScheme-Highlight {
        color:#3daee9;
      }
      </style>
  </defs>
  <path class="ColorScheme-Text"
     style="color:currentColor;clip-rule:nonzero;display:inline;overflow:visible;visibility:visible;opacity:1;isolation:auto;mix-blend-mode:normal;color-interpolation:sRGB;color-interpolation-filters:linearRGB;solid-color:currentColor;solid-opacity:1;fill:currentColor;fill-opacity:1;fill-rule:nonzero;stroke:none;stroke-width:1;stroke-linecap:butt;stroke-linejoin:miter;stroke-miterlimit:4;stroke-dasharray:none;stroke-dashoffset:0;stroke-opacity:1;marker:none;marker-start:none;marker-mid:none;marker-end:none;color-rendering:auto;image-rendering:auto;shape-rendering:auto;text-rendering:auto;enable-background:accumulate"
     d="M 12.962891 2.3378906 L 2.3574219 12.945312 L 3.0644531 13.652344 L 13.669922 3.0449219 L 12.962891 2.3378906 z M 5 3.9941406 L 5 6.9941406 L 4 6.9941406 L 4 5.9941406 L 3 5.9941406 L 3 6.9941406 L 2 6.9941406 L 2 7.9941406 L 5.8828125 7.9960938 L 6.8847656 6.9941406 L 6 6.9941406 L 6 3.9941406 L 5 3.9941406 z M 13.976562 4.1445312 L 12.976562 5.1445312 L 12.976562 6.9941406 L 12 6.9941406 L 12 6.1210938 L 10.123047 7.9980469 L 13.976562 8 L 13.976562 4.1445312 z M 7 5.9941406 L 7 6.8789062 L 7.8847656 5.9941406 L 7 5.9941406 z M 3 9 L 3 10.878906 L 4.8789062 9 L 3 9 z M 9.1210938 9 L 7.1210938 11 L 13 11 L 13 9 L 9.1210938 9 z "
     id="path4145" />
</svg>
