<?xml version="1.0" encoding="UTF-8" standalone="no"?>
<svg
   xmlns:dc="http://purl.org/dc/elements/1.1/"
   xmlns:cc="http://creativecommons.org/ns#"
   xmlns:rdf="http://www.w3.org/1999/02/22-rdf-syntax-ns#"
   xmlns:svg="http://www.w3.org/2000/svg"
   xmlns="http://www.w3.org/2000/svg"
   xmlns:sodipodi="http://sodipodi.sourceforge.net/DTD/sodipodi-0.dtd"
   xmlns:inkscape="http://www.inkscape.org/namespaces/inkscape"
   width="16"
   height="16"
   id="svg2"
   version="1.1"
   inkscape:version="0.91 r13725"
   sodipodi:docname="timeline-use-zone-on.svg">
  <metadata
     id="metadata10">
    <rdf:RDF>
      <cc:Work
         rdf:about="">
        <dc:format>image/svg+xml</dc:format>
        <dc:type
           rdf:resource="http://purl.org/dc/dcmitype/StillImage" />
        <dc:title></dc:title>
      </cc:Work>
    </rdf:RDF>
  </metadata>
  <sodipodi:namedview
     pagecolor="#ffffff"
     bordercolor="#666666"
     borderopacity="1"
     objecttolerance="10"
     gridtolerance="10"
     guidetolerance="10"
     inkscape:pageopacity="0"
     inkscape:pageshadow="2"
     inkscape:window-width="2166"
     inkscape:window-height="1199"
     id="namedview8"
     showgrid="true"
     inkscape:zoom="42.909091"
     inkscape:cx="11.244448"
     inkscape:cy="9.2856419"
     inkscape:window-x="0"
     inkscape:window-y="0"
     inkscape:window-maximized="0"
     inkscape:current-layer="svg2">
    <inkscape:grid
       type="xygrid"
       id="grid4138" />
  </sodipodi:namedview>
  <defs
     id="defs3051">
    <style
       type="text/css"
       id="current-color-scheme">
      .ColorScheme-Text {
        color:#4d4d4d;
      }
      </style>
  </defs>
  <path class="ColorScheme-Text"
     style="color:currentColor;clip-rule:nonzero;display:inline;overflow:visible;visibility:visible;opacity:1;isolation:auto;mix-blend-mode:normal;color-interpolation:sRGB;color-interpolation-filters:linearRGB;solid-color:currentColor;solid-opacity:1;fill:currentColor;fill-opacity:1;fill-rule:nonzero;stroke:none;stroke-width:1;stroke-linecap:butt;stroke-linejoin:miter;stroke-miterlimit:4;stroke-dasharray:none;stroke-dashoffset:0;stroke-opacity:1;marker:none;marker-start:none;marker-mid:none;marker-end:none;color-rendering:auto;image-rendering:auto;shape-rendering:auto;text-rendering:auto;enable-background:accumulate"
     d="M 5 1.9941406 L 5 4.9941406 L 4 4.9941406 L 4 3.9941406 L 3 3.9941406 L 3 4.9941406 L 2 4.9941406 L 2 5.9941406 L 13.976562 6 L 13.976562 2 L 12.976562 2 L 12.976562 4.9941406 L 12 4.9941406 L 12 3.9941406 L 11 3.9941406 L 11 4.9941406 L 10 4.9941406 L 10 3.9941406 L 9 3.9941406 L 9 4.9941406 L 8 4.9941406 L 8 3.9941406 L 7 3.9941406 L 7 4.9941406 L 6 4.9941406 L 6 1.9941406 L 5 1.9941406 z M 2 8 L 2 13 L 3 13 L 3 10.5 L 3 8 L 2 8 z M 3 10.5 L 6 13 L 6 8 L 3 10.5 z M 10 8 L 10 13 L 13 10.5 L 10 8 z M 13 10.5 L 13 13 L 14 13 L 14 8 L 13 8 L 13 10.5 z "
     id="path4148" />
</svg>
