<?xml version="1.0" encoding="UTF-8" standalone="no"?>
<!-- Created with Inkscape (http://www.inkscape.org/) -->

<svg
   xmlns:dc="http://purl.org/dc/elements/1.1/"
   xmlns:cc="http://creativecommons.org/ns#"
   xmlns:rdf="http://www.w3.org/1999/02/22-rdf-syntax-ns#"
   xmlns:svg="http://www.w3.org/2000/svg"
   xmlns="http://www.w3.org/2000/svg"
   xmlns:sodipodi="http://sodipodi.sourceforge.net/DTD/sodipodi-0.dtd"
   xmlns:inkscape="http://www.inkscape.org/namespaces/inkscape"
   width="22"
   height="22"
   id="svg3049"
   version="1.1"
   inkscape:version="0.91 r13725"
   sodipodi:docname="jog-dial.svg"
   inkscape:export-filename="/home/uri/.kde/share/icons/NITRUX-KDE/16x16/actions/view-right-new.png"
   inkscape:export-xdpi="30"
   inkscape:export-ydpi="30">
  <sodipodi:namedview
     id="base"
     pagecolor="#ffffff"
     bordercolor="#666666"
     borderopacity="1.0"
     inkscape:pageopacity="0.0"
     inkscape:pageshadow="2"
     inkscape:zoom="50.181818"
     inkscape:cx="11"
     inkscape:cy="11"
     inkscape:document-units="px"
     inkscape:current-layer="layer1"
     showgrid="true"
     fit-margin-top="0"
     fit-margin-left="0"
     fit-margin-right="0"
     fit-margin-bottom="0"
     inkscape:window-width="1283"
     inkscape:window-height="1347"
     inkscape:window-x="0"
     inkscape:window-y="0"
     inkscape:window-maximized="0"
     inkscape:showpageshadow="false"
     borderlayer="true">
    <sodipodi:guide
       position="2.0000044,20.00003"
       orientation="18,0"
       id="guide4067" />
    <sodipodi:guide
       position="2.0000044,2.0000296"
       orientation="0,18"
       id="guide4069" />
    <sodipodi:guide
       position="20.000004,2.0000296"
       orientation="-18,0"
       id="guide4071" />
    <sodipodi:guide
       position="20.000004,20.00003"
       orientation="0,-18"
       id="guide4073" />
    <sodipodi:guide
       position="3.0000044,19.00003"
       orientation="16,0"
       id="guide4077" />
    <sodipodi:guide
       position="3.0000044,3.0000296"
       orientation="0,16"
       id="guide4079" />
    <sodipodi:guide
       position="19.000004,3.0000296"
       orientation="-16,0"
       id="guide4081" />
    <sodipodi:guide
       position="19.000004,19.00003"
       orientation="0,-16"
       id="guide4083" />
    <inkscape:grid
       type="xygrid"
       id="grid4085" />
  </sodipodi:namedview>
  <metadata
     id="metadata3054">
    <rdf:RDF>
      <cc:Work
         rdf:about="">
        <dc:format>image/svg+xml</dc:format>
        <dc:type
           rdf:resource="http://purl.org/dc/dcmitype/StillImage" />
        <dc:title />
      </cc:Work>
    </rdf:RDF>
  </metadata>
  <defs
     id="defs3051">
    <style
       type="text/css"
       id="current-color-scheme">
      .ColorScheme-Text {
        color:#4d4d4d;
      }
    </style>
  </defs>
  <g
     inkscape:label="Capa 1"
     inkscape:groupmode="layer"
     id="layer1"
     transform="translate(-421.71429,-525.79074)">
    <path
       style="color:currentColor;fill:currentColor;fill-opacity:1;stroke:none"
       class="ColorScheme-Text"
       d="M 10.136719,3.0488281 C 9.321313,3.1406523 8.5248875,3.3573802 7.7753906,3.6914062 L 7.7871094,4.765625 7.2109375,5.0976562 6.2949219,4.5546875 C 5.6296934,5.0399123 5.043361,5.624927 4.5566406,6.2890625 L 5.0996094,7.2070312 4.7675781,7.7832031 3.7011719,7.7714844 C 3.3658957,8.5227145 3.1484961,9.3211638 3.0566406,10.138672 l 0.9355469,0.527344 0,0.662109 -0.9394531,0.529297 c 0.090614,0.817297 0.3066935,1.615738 0.640625,2.367187 l 1.0703125,-0.01172 0.3320312,0.574218 -0.5410156,0.914063 c 0.4843217,0.666469 1.0686855,1.254127 1.7324219,1.742187 l 0.9160156,-0.542968 0.5742188,0.332031 -0.011719,1.066406 c 0.75123,0.335277 1.5496791,0.552676 2.367187,0.644531 l 0.525391,-0.935547 0.664063,0 0.529296,0.941407 c 0.817298,-0.09061 1.615739,-0.306693 2.367188,-0.640625 l -0.01172,-1.06836 0.574219,-0.332031 0.916016,0.541016 c 0.665481,-0.483292 1.252456,-1.066315 1.740234,-1.728516 l -0.542969,-0.919922 0.332031,-0.576172 1.070313,0.01172 c 0.33537,-0.749278 0.553417,-1.545712 0.646484,-2.361328 l -0.941406,-0.53125 0,-0.664062 0.947266,-0.53125 C 18.858833,9.3325766 18.643421,8.5354857 18.310547,7.7851562 L 17.232422,7.796875 16.900391,7.2226562 17.447266,6.3007812 C 16.963381,5.6351528 16.379692,5.0481695 15.716797,4.5605469 L 14.794922,5.1054688 14.220703,4.7734375 14.232422,3.703125 C 13.480073,3.3667893 12.680273,3.1487219 11.861328,3.0566406 l -0.527344,0.9375 -0.664062,0 z M 11,5 c 3.313708,0 6,2.6862915 6,6 0,3.313708 -2.686292,6 -6,6 C 7.6862915,17 5,14.313708 5,11 5,7.6862915 7.6862915,5 11,5 Z m -0.08008,1 C 8.9106826,6.0319623 7.1158022,7.2636826 6.3632812,9.1269531 5.3283795,11.687746 6.5658511,14.602582 9.1269531,15.636719 11.687746,16.671621 14.602582,15.434149 15.636719,12.873047 16.671621,10.312254 15.434149,7.397418 12.873047,6.3632812 12.252858,6.1127671 11.588709,5.9892354 10.919922,6 Z m 1.037109,1.1816406 c 0.186208,0.00245 0.370333,0.039543 0.542969,0.109375 0.767764,0.3109217 1.138418,1.1851071 0.828125,1.953125 C 13.018743,10.013435 12.144102,10.386032 11.375,10.076172 10.605398,9.7660228 10.233545,8.8901996 10.544922,8.1210938 c 0.23165,-0.57462 0.792609,-0.9478169 1.412109,-0.9394532 z M 8.4570312,9.8417969 c 0.2002579,-0.00832 0.400154,0.023555 0.5878907,0.09375 0.5141315,0.1937991 0.8812501,0.6530721 0.9570311,1.1972651 0.115624,0.820251 -0.4552288,1.579057 -1.2753905,1.695313 -0.8216184,0.116744 -1.5820069,-0.455516 -1.6972656,-1.277344 -0.115565,-0.820914 0.4563908,-1.5800235 1.2773437,-1.6953122 0.049869,-0.00708 0.1000627,-0.011641 0.1503906,-0.013672 z m 4.1386718,1.6250001 c 0.149858,0.0059 0.297988,0.03419 0.439453,0.08398 0.270892,0.09511 0.508817,0.265926 0.685547,0.492188 0.511537,0.652535 0.396961,1.59625 -0.255859,2.107422 -0.65356,0.510651 -1.597428,0.394308 -2.107422,-0.259766 -0.510651,-0.65356 -0.394308,-1.597428 0.259766,-2.107422 0.278726,-0.217425 0.625258,-0.329477 0.978515,-0.316406 z"
       transform="translate(421.71429,525.79074)"
       id="path4284"
       inkscape:connector-curvature="0"
       sodipodi:nodetypes="cccccccccccccccccccccccccccccccccccccccccccccccccssssscccccccccccccccccccccccccc" />
  </g>
</svg>
