<?xml version="1.0" encoding="UTF-8" standalone="no"?>
<svg
   xmlns:dc="http://purl.org/dc/elements/1.1/"
   xmlns:cc="http://creativecommons.org/ns#"
   xmlns:rdf="http://www.w3.org/1999/02/22-rdf-syntax-ns#"
   xmlns:svg="http://www.w3.org/2000/svg"
   xmlns="http://www.w3.org/2000/svg"
   xmlns:sodipodi="http://sodipodi.sourceforge.net/DTD/sodipodi-0.dtd"
   xmlns:inkscape="http://www.inkscape.org/namespaces/inkscape"
   width="22"
   height="22"
   id="svg2"
   version="1.1"
   inkscape:version="0.91 r13725"
   sodipodi:docname="timeline-clip-in-project.svg">
  <metadata
     id="metadata12">
    <rdf:RDF>
      <cc:Work
         rdf:about="">
        <dc:format>image/svg+xml</dc:format>
        <dc:type
           rdf:resource="http://purl.org/dc/dcmitype/StillImage" />
        <dc:title></dc:title>
      </cc:Work>
    </rdf:RDF>
  </metadata>
  <sodipodi:namedview
     pagecolor="#ffffff"
     bordercolor="#666666"
     borderopacity="1"
     objecttolerance="10"
     gridtolerance="10"
     guidetolerance="10"
     inkscape:pageopacity="0"
     inkscape:pageshadow="2"
     inkscape:window-width="2560"
     inkscape:window-height="1351"
     id="namedview8"
     showgrid="true"
     inkscape:zoom="60.682618"
     inkscape:cx="12.304255"
     inkscape:cy="6.5045787"
     inkscape:window-x="0"
     inkscape:window-y="0"
     inkscape:window-maximized="1"
     inkscape:current-layer="svg2"
     inkscape:snap-grids="true"
     inkscape:snap-bbox="true"
     inkscape:snap-global="true"
     inkscape:bbox-paths="true"
     inkscape:bbox-nodes="true"
     inkscape:snap-bbox-edge-midpoints="true"
     inkscape:snap-bbox-midpoints="true"
     inkscape:object-paths="true"
     inkscape:snap-intersection-paths="true"
     inkscape:object-nodes="true"
     inkscape:snap-smooth-nodes="true"
     inkscape:snap-midpoints="true"
     inkscape:snap-object-midpoints="true"
     inkscape:snap-center="true"
     inkscape:snap-text-baseline="true">
    <inkscape:grid
       type="xygrid"
       id="grid4140" />
  </sodipodi:namedview>
  <defs
     id="defs4">
    <style
       type="text/css"
       id="current-color-scheme">
      .ColorScheme-Text {
        color:#4d4d4d;
      }
      .ColorScheme-Background {
        color:#eff0f1;
      }
      .ColorScheme-Highlight {
        color:#3daee9;
      }
      .ColorScheme-ViewText {
        color:#31363b;
      }
      .ColorScheme-ViewBackground {
        color:#fcfcfc;
      }
      .ColorScheme-ViewHover {
        color:#93cee9;
      }
      .ColorScheme-ViewFocus{
        color:#3daee9;
      }
      .ColorScheme-ButtonText {
        color:#31363b;
      }
      .ColorScheme-ButtonBackground {
        color:#eff0f1;
      }
      .ColorScheme-ButtonHover {
        color:#93cee9;
      }
      .ColorScheme-ButtonFocus{
        color:#3daee9;
      }
      </style>
  </defs>
  <path
     style="fill:currentColor;fill-opacity:1;stroke:none"
     class="ColorScheme-Text"
     d="M 5 2 L 5 9 L 17 9 L 17 2 L 5 2 z M 6 3 L 7 3 L 7 4 L 6 4 L 6 3 z M 8 3 L 14 3 L 14 8 L 8 8 L 8 3 z M 15 3 L 16 3 L 16 4 L 15 4 L 15 3 z M 10 4 L 10 7 L 12 5.5 L 10 4 z M 6 5 L 7 5 L 7 6 L 6 6 L 6 5 z M 15 5 L 16 5 L 16 6 L 15 6 L 15 5 z M 6 7 L 7 7 L 7 8 L 6 8 L 6 7 z M 15 7 L 16 7 L 16 8 L 15 8 L 15 7 z M 2 15 L 2 16 L 3 16 L 3 15 L 2 15 z M 4 15 L 4 16 L 5 16 L 5 15 L 4 15 z M 6 15 L 6 20 L 16 20 L 16 15 L 6 15 z M 17 15 L 17 16 L 18 16 L 18 15 L 17 15 z M 19 15 L 19 16 L 20 16 L 20 15 L 19 15 z M 2 19 L 2 20 L 3 20 L 3 19 L 2 19 z M 4 19 L 4 20 L 5 20 L 5 19 L 4 19 z M 17 19 L 17 20 L 18 20 L 18 19 L 17 19 z M 19 19 L 19 20 L 20 20 L 20 19 L 19 19 z "
     id="rect4137" />
  <path
     style="fill:currentColor;fill-opacity:1;stroke:none"
     class="ColorScheme-Highlight"
     d="M 13.99999,13.19998 12.99214,12.125 11,9.99996 9.00778,12.125 8,13.19998 8.75,14 9.75777,12.92495 11,11.60001 12.24214,12.92495 13.24999,14 l 0.75,-0.80002 z"
     id="rect4176"
     inkscape:connector-curvature="0" />
</svg>
