<?xml version="1.0" encoding="UTF-8" standalone="no"?>
<svg
   xmlns:dc="http://purl.org/dc/elements/1.1/"
   xmlns:cc="http://creativecommons.org/ns#"
   xmlns:rdf="http://www.w3.org/1999/02/22-rdf-syntax-ns#"
   xmlns:svg="http://www.w3.org/2000/svg"
   xmlns="http://www.w3.org/2000/svg"
   xmlns:sodipodi="http://sodipodi.sourceforge.net/DTD/sodipodi-0.dtd"
   xmlns:inkscape="http://www.inkscape.org/namespaces/inkscape"
   viewBox="0 0 22 22"
   id="svg2"
   version="1.1"
   inkscape:version="0.91 r13725"
   sodipodi:docname="kdenlive-locate-clip.svg">
  <metadata
     id="metadata10">
    <rdf:RDF>
      <cc:Work
         rdf:about="">
        <dc:format>image/svg+xml</dc:format>
        <dc:type
           rdf:resource="http://purl.org/dc/dcmitype/StillImage" />
      </cc:Work>
    </rdf:RDF>
  </metadata>
  <sodipodi:namedview
     pagecolor="#ffffff"
     bordercolor="#666666"
     borderopacity="1"
     objecttolerance="10"
     gridtolerance="10"
     guidetolerance="10"
     inkscape:pageopacity="0"
     inkscape:pageshadow="2"
     inkscape:window-width="2039"
     inkscape:window-height="1307"
     id="namedview8"
     showgrid="true"
     inkscape:zoom="60.682618"
     inkscape:cx="11.434014"
     inkscape:cy="8.0755953"
     inkscape:window-x="421"
     inkscape:window-y="26"
     inkscape:window-maximized="0"
     inkscape:current-layer="svg2">
    <inkscape:grid
       type="xygrid"
       id="grid4143" />
  </sodipodi:namedview>
  <defs
     id="defs3051">
    <style
       type="text/css"
       id="current-color-scheme">
      .ColorScheme-Text {
        color:#4d4d4d;
      }
      .ColorScheme-Highlight {
        color:#3daee9;
      }
      .ColorScheme-Background {
        color:#eff0f1;
      }
      .ColorScheme-PositiveText {
        color:#2ecc71;
      }
      .ColorScheme-NeutralText {
        color:#f67400;
      }
      .ColorScheme-NegativeText {
        color:#da4453;
      }
    </style>
  </defs>
  <path class="ColorScheme-Text"
     style="color:currentColor;clip-rule:nonzero;display:inline;overflow:visible;visibility:visible;opacity:1;isolation:auto;mix-blend-mode:normal;color-interpolation:sRGB;color-interpolation-filters:linearRGB;solid-color:currentColor;solid-opacity:1;fill:currentColor;fill-opacity:1;fill-rule:nonzero;stroke:none;stroke-width:1;stroke-linecap:butt;stroke-linejoin:miter;stroke-miterlimit:4;stroke-dasharray:none;stroke-dashoffset:0;stroke-opacity:1;color-rendering:auto;image-rendering:auto;shape-rendering:auto;text-rendering:auto;enable-background:accumulate"
     d="M 3 3 L 3 4 L 3 19 L 6 19 L 6 18 L 4 18 L 4 10 L 7 10 L 7 9.9902344 L 7.0078125 10 L 9.0078125 8 L 18 8 L 18 11 L 19 11 L 19 5 L 12.007812 5 L 10.007812 3 L 10 3.0097656 L 10 3 L 4 3 L 3 3 z M 7 12 L 7 20 L 8 20 L 8 19 L 9 19 L 9 20 L 18 20 L 18 19 L 19 19 L 19 20 L 20 20 L 20 12 L 7 12 z M 8 13 L 9 13 L 9 14 L 8 14 L 8 13 z M 10.021484 13 L 16.978516 13 L 16.978516 19 L 10.021484 19 L 10.021484 13 z M 18 13 L 19 13 L 19 14 L 18 14 L 18 13 z M 12 14 L 12 18 L 15 16 L 12 14 z M 8 15 L 9 15 L 9 16 L 8 16 L 8 15 z M 18 15 L 19 15 L 19 16 L 18 16 L 18 15 z M 8 17 L 9 17 L 9 18 L 8 18 L 8 17 z M 18 17 L 19 17 L 19 18 L 18 18 L 18 17 z "
     id="path4147" />
</svg>
