<?xml version="1.0" encoding="UTF-8" standalone="no"?>
<svg
   xmlns:dc="http://purl.org/dc/elements/1.1/"
   xmlns:cc="http://creativecommons.org/ns#"
   xmlns:rdf="http://www.w3.org/1999/02/22-rdf-syntax-ns#"
   xmlns:svg="http://www.w3.org/2000/svg"
   xmlns="http://www.w3.org/2000/svg"
   xmlns:sodipodi="http://sodipodi.sourceforge.net/DTD/sodipodi-0.dtd"
   xmlns:inkscape="http://www.inkscape.org/namespaces/inkscape"
   width="22"
   height="22"
   id="svg2"
   version="1.1"
   inkscape:version="0.91 r13725"
   sodipodi:docname="kdenlive-timeline.svg">
  <metadata
     id="metadata10">
    <rdf:RDF>
      <cc:Work
         rdf:about="">
        <dc:format>image/svg+xml</dc:format>
        <dc:type
           rdf:resource="http://purl.org/dc/dcmitype/StillImage" />
        <dc:title />
      </cc:Work>
    </rdf:RDF>
  </metadata>
  <defs
     id="defs3051">
    <style
       type="text/css"
       id="current-color-scheme">
      .ColorScheme-Text {
        color:#4d4d4d;
      }
    </style>
  </defs>
  <sodipodi:namedview
     pagecolor="#ffffff"
     bordercolor="#666666"
     borderopacity="1"
     objecttolerance="10"
     gridtolerance="10"
     guidetolerance="10"
     inkscape:pageopacity="0"
     inkscape:pageshadow="2"
     inkscape:window-width="2560"
     inkscape:window-height="1351"
     id="namedview6"
     showgrid="true"
     showguides="false"
     inkscape:zoom="30.341309"
     inkscape:cx="13.129003"
     inkscape:cy="18.351697"
     inkscape:window-x="0"
     inkscape:window-y="0"
     inkscape:window-maximized="1"
     inkscape:current-layer="svg2"
     inkscape:snap-grids="true">
    <inkscape:grid
       type="xygrid"
       id="grid4138" />
  </sodipodi:namedview>
  <path
     style="fill:currentColor;fill-opacity:1;stroke:none"
     class="ColorScheme-Text"
     d="M 6 3 L 6 7 L 5 7 L 5 5 L 4 5 L 4 7 L 3 7 L 3 8 L 19 8 L 19 7 L 18.976562 7 L 18.976562 5.0058594 L 17.976562 5.0058594 L 17.976562 7 L 17 7 L 17 3 L 16 3 L 16 7 L 15 7 L 15 5 L 14 5 L 14 7 L 13 7 L 13 5 L 12 5 L 12 7 L 11 7 L 11 5 L 10 5 L 10 7 L 9 7 L 9 5 L 8 5 L 8 7 L 7 7 L 7 3 L 6 3 z M 7 9 L 7 12 L 3 12 L 3 15 L 8 15 L 8 12 L 11 12 L 11 15 L 16 15 L 16 12 L 12 12 L 12 9 L 7 9 z M 16 15 L 16 18 L 19 18 L 19 15 L 16 15 z "
     id="rect4203" />
  <path
     class="ColorScheme-Text"
     style="clip-rule:nonzero;display:inline;overflow:visible;visibility:visible;opacity:1;isolation:auto;mix-blend-mode:normal;color-interpolation:sRGB;color-interpolation-filters:linearRGB;fill:currentColor;fill-opacity:1;fill-rule:nonzero;stroke:none;stroke-width:1.12399995;stroke-linecap:butt;stroke-linejoin:miter;stroke-miterlimit:4;stroke-dasharray:none;stroke-dashoffset:0;stroke-opacity:1;marker:none;marker-start:none;marker-mid:none;marker-end:none;color-rendering:auto;image-rendering:auto;shape-rendering:auto;text-rendering:auto;enable-background:accumulate"
     d="M 3 9 L 3 10 L 4 10 L 4 9 L 3 9 z M 5 9 L 5 10 L 6 10 L 6 9 L 5 9 z M 13 9 L 13 10 L 14 10 L 14 9 L 13 9 z M 15 9 L 15 10 L 16 10 L 16 9 L 15 9 z M 17 9 L 17 10 L 18 10 L 18 9 L 17 9 z M 17 12 L 17 13 L 18 13 L 18 12 L 17 12 z M 9 14 L 9 15 L 10 15 L 10 14 L 9 14 z M 3 17 L 3 18 L 4 18 L 4 17 L 3 17 z M 5 17 L 5 18 L 6 18 L 6 17 L 5 17 z M 7 17 L 7 18 L 8 18 L 8 17 L 7 17 z M 9 17 L 9 18 L 10 18 L 10 17 L 9 17 z M 11 17 L 11 18 L 12 18 L 12 17 L 11 17 z M 13 17 L 13 18 L 14 18 L 14 17 L 13 17 z M 15 17 L 15 18 L 16 18 L 16 17 L 15 17 z "
     id="rect4137" />
</svg>
