<?xml version="1.0" encoding="UTF-8" standalone="no"?>
<svg
   xmlns:dc="http://purl.org/dc/elements/1.1/"
   xmlns:cc="http://creativecommons.org/ns#"
   xmlns:rdf="http://www.w3.org/1999/02/22-rdf-syntax-ns#"
   xmlns:svg="http://www.w3.org/2000/svg"
   xmlns="http://www.w3.org/2000/svg"
   xmlns:sodipodi="http://sodipodi.sourceforge.net/DTD/sodipodi-0.dtd"
   xmlns:inkscape="http://www.inkscape.org/namespaces/inkscape"
   viewBox="0 0 22 22"
   id="svg2"
   version="1.1"
   inkscape:version="0.91 r13725"
   sodipodi:docname="lt_kdenlive-track-taller.svg">
  <metadata
     id="metadata12">
    <rdf:RDF>
      <cc:Work
         rdf:about="">
        <dc:format>image/svg+xml</dc:format>
        <dc:type
           rdf:resource="http://purl.org/dc/dcmitype/StillImage" />
      </cc:Work>
    </rdf:RDF>
  </metadata>
  <sodipodi:namedview
     pagecolor="#ffffff"
     bordercolor="#666666"
     borderopacity="1"
     objecttolerance="10"
     gridtolerance="10"
     guidetolerance="10"
     inkscape:pageopacity="0"
     inkscape:pageshadow="2"
     inkscape:window-width="1693"
     inkscape:window-height="1149"
     id="namedview10"
     showgrid="true"
     inkscape:zoom="30.341309"
     inkscape:cx="2.256584"
     inkscape:cy="7.5162447"
     inkscape:window-x="718"
     inkscape:window-y="159"
     inkscape:window-maximized="0"
     inkscape:current-layer="svg2">
    <inkscape:grid
       type="xygrid"
       id="grid4140" />
  </sodipodi:namedview>
  <defs
     id="defs3051">
    <style
       type="text/css"
       id="current-color-scheme">
      .ColorScheme-Text {
        color:#4d4d4d;
      }
      .ColorScheme-Highlight {
        color:#3daee9;
      }
      .ColorScheme-Background {
        color:#eff0f1;
      }
      .ColorScheme-PositiveText {
        color:#2ecc71;
      }
      .ColorScheme-NeutralText {
        color:#f67400;
      }
      .ColorScheme-NegativeText {
        color:#da4453;
      }
    </style>
  </defs>
  <path
     style="color:currentColor;clip-rule:nonzero;display:inline;overflow:visible;visibility:visible;opacity:1;isolation:auto;mix-blend-mode:normal;color-interpolation:sRGB;color-interpolation-filters:linearRGB;solid-color:currentColor;solid-opacity:1;fill:currentColor;fill-opacity:1;fill-rule:nonzero;stroke:none;stroke-width:1.12399995;stroke-linecap:butt;stroke-linejoin:miter;stroke-miterlimit:4;stroke-dasharray:none;stroke-dashoffset:0;stroke-opacity:1;marker:none;marker-start:none;marker-mid:none;marker-end:none;color-rendering:auto;image-rendering:auto;shape-rendering:auto;text-rendering:auto;enable-background:accumulate" class="ColorScheme-Text"
     d="M 10.5 4 L 8.5 7 L 12.5 7 L 10.5 4 z M 3 8 L 3 9 L 4 9 L 4 8 L 3 8 z M 5 8 L 5 9 L 6 9 L 6 8 L 5 8 z M 7 8 L 7 9 L 8 9 L 8 8 L 7 8 z M 9 8 L 9 9 L 10 9 L 10 8 L 9 8 z M 11 8 L 11 9 L 12 9 L 12 8 L 11 8 z M 13 8 L 13 9 L 14 9 L 14 8 L 13 8 z M 15 8 L 15 9 L 16 9 L 16 8 L 15 8 z M 17 8 L 17 9 L 18 9 L 18 8 L 17 8 z M 3 13 L 3 14 L 4 14 L 4 13 L 3 13 z M 5 13 L 5 14 L 6 14 L 6 13 L 5 13 z M 7 13 L 7 14 L 8 14 L 8 13 L 7 13 z M 9 13 L 9 14 L 10 14 L 10 13 L 9 13 z M 11 13 L 11 14 L 12 14 L 12 13 L 11 13 z M 13 13 L 13 14 L 14 14 L 14 13 L 13 13 z M 15 13 L 15 14 L 16 14 L 16 13 L 15 13 z M 17 13 L 17 14 L 18 14 L 18 13 L 17 13 z M 8.5 15 L 10.5 18 L 12.5 15 L 8.5 15 z "
     id="rect4136" />
</svg>
