<?xml version="1.0" encoding="UTF-8" standalone="no"?>
<svg
   xmlns:dc="http://purl.org/dc/elements/1.1/"
   xmlns:cc="http://creativecommons.org/ns#"
   xmlns:rdf="http://www.w3.org/1999/02/22-rdf-syntax-ns#"
   xmlns:svg="http://www.w3.org/2000/svg"
   xmlns="http://www.w3.org/2000/svg"
   xmlns:sodipodi="http://sodipodi.sourceforge.net/DTD/sodipodi-0.dtd"
   xmlns:inkscape="http://www.inkscape.org/namespaces/inkscape"
   viewBox="0 0 22 22"
   id="svg2"
   version="1.1"
   inkscape:version="0.91 r13725"
   sodipodi:docname="lt_kdenlive-track-smaller.svg">
  <metadata
     id="metadata12">
    <rdf:RDF>
      <cc:Work
         rdf:about="">
        <dc:format>image/svg+xml</dc:format>
        <dc:type
           rdf:resource="http://purl.org/dc/dcmitype/StillImage" />
      </cc:Work>
    </rdf:RDF>
  </metadata>
  <sodipodi:namedview
     pagecolor="#ffffff"
     bordercolor="#666666"
     borderopacity="1"
     objecttolerance="10"
     gridtolerance="10"
     guidetolerance="10"
     inkscape:pageopacity="0"
     inkscape:pageshadow="2"
     inkscape:window-width="1693"
     inkscape:window-height="1149"
     id="namedview10"
     showgrid="true"
     inkscape:zoom="30.341309"
     inkscape:cx="5.140441"
     inkscape:cy="7.5162447"
     inkscape:window-x="718"
     inkscape:window-y="159"
     inkscape:window-maximized="0"
     inkscape:current-layer="svg2">
    <inkscape:grid
       type="xygrid"
       id="grid4140" />
  </sodipodi:namedview>
  <defs
     id="defs3051">
    <style
       type="text/css"
       id="current-color-scheme">
      .ColorScheme-Text {
        color:#4d4d4d;
      }
      .ColorScheme-Highlight {
        color:#3daee9;
      }
      .ColorScheme-Background {
        color:#eff0f1;
      }
      .ColorScheme-PositiveText {
        color:#2ecc71;
      }
      .ColorScheme-NeutralText {
        color:#f67400;
      }
      .ColorScheme-NegativeText {
        color:#da4453;
      }
    </style>
  </defs>
  <path
     style="color:currentColor;clip-rule:nonzero;display:inline;overflow:visible;visibility:visible;opacity:1;isolation:auto;mix-blend-mode:normal;color-interpolation:sRGB;color-interpolation-filters:linearRGB;solid-color:currentColor;solid-opacity:1;fill:currentColor;fill-opacity:1;fill-rule:nonzero;stroke:none;stroke-width:1.12399995;stroke-linecap:butt;stroke-linejoin:miter;stroke-miterlimit:4;stroke-dasharray:none;stroke-dashoffset:0;stroke-opacity:1;marker:none;marker-start:none;marker-mid:none;marker-end:none;color-rendering:auto;image-rendering:auto;shape-rendering:auto;text-rendering:auto;enable-background:accumulate" class="ColorScheme-Text"
     d="M 3 5 L 3 6 L 4 6 L 4 5 L 3 5 z M 5 5 L 5 6 L 6 6 L 6 5 L 5 5 z M 7 5 L 7 6 L 8 6 L 8 5 L 7 5 z M 9 5 L 9 6 L 10 6 L 10 5 L 9 5 z M 11 5 L 11 6 L 12 6 L 12 5 L 11 5 z M 13 5 L 13 6 L 14 6 L 14 5 L 13 5 z M 15 5 L 15 6 L 16 6 L 16 5 L 15 5 z M 17 5 L 17 6 L 18 6 L 18 5 L 17 5 z M 8.5 7 L 10.5 10 L 12.5 7 L 8.5 7 z M 10.5 12 L 8.5 15 L 12.5 15 L 10.5 12 z M 3 16 L 3 17 L 4 17 L 4 16 L 3 16 z M 5 16 L 5 17 L 6 17 L 6 16 L 5 16 z M 7 16 L 7 17 L 8 17 L 8 16 L 7 16 z M 9 16 L 9 17 L 10 17 L 10 16 L 9 16 z M 11 16 L 11 17 L 12 17 L 12 16 L 11 16 z M 13 16 L 13 17 L 14 17 L 14 16 L 13 16 z M 15 16 L 15 17 L 16 17 L 16 16 L 15 16 z M 17 16 L 17 17 L 18 17 L 18 16 L 17 16 z "
     id="rect4136" />
</svg>
