<?xml version="1.0" encoding="UTF-8" standalone="no"?>
<svg
   xmlns:dc="http://purl.org/dc/elements/1.1/"
   xmlns:cc="http://creativecommons.org/ns#"
   xmlns:rdf="http://www.w3.org/1999/02/22-rdf-syntax-ns#"
   xmlns:svg="http://www.w3.org/2000/svg"
   xmlns="http://www.w3.org/2000/svg"
   xmlns:sodipodi="http://sodipodi.sourceforge.net/DTD/sodipodi-0.dtd"
   xmlns:inkscape="http://www.inkscape.org/namespaces/inkscape"
   viewBox="0 0 22 22"
   id="svg2"
   version="1.1"
   inkscape:version="0.91 r13725"
   sodipodi:docname="preview-render-on.svg">
  <metadata
     id="metadata12">
    <rdf:RDF>
      <cc:Work
         rdf:about="">
        <dc:format>image/svg+xml</dc:format>
        <dc:type
           rdf:resource="http://purl.org/dc/dcmitype/StillImage" />
      </cc:Work>
    </rdf:RDF>
  </metadata>
  <sodipodi:namedview
     pagecolor="#ffffff"
     bordercolor="#666666"
     borderopacity="1"
     objecttolerance="10"
     gridtolerance="10"
     guidetolerance="10"
     inkscape:pageopacity="0"
     inkscape:pageshadow="2"
     inkscape:window-width="1693"
     inkscape:window-height="1149"
     id="namedview10"
     showgrid="true"
     inkscape:zoom="30.341309"
     inkscape:cx="10.360042"
     inkscape:cy="8.7081736"
     inkscape:window-x="718"
     inkscape:window-y="159"
     inkscape:window-maximized="0"
     inkscape:current-layer="svg2">
    <inkscape:grid
       type="xygrid"
       id="grid4140" />
  </sodipodi:namedview>
  <defs
     id="defs3051">
    <style
       type="text/css"
       id="current-color-scheme">
      .ColorScheme-Text {
        color:#4d4d4d;
      }
      .ColorScheme-Highlight {
        color:#3daee9;
      }
      .ColorScheme-Background {
        color:#eff0f1;
      }
      .ColorScheme-PositiveText {
        color:#2ecc71;
      }
      .ColorScheme-NeutralText {
        color:#f67400;
      }
      .ColorScheme-NegativeText {
        color:#da4453;
      }
    </style>
  </defs>
  <path class="ColorScheme-Text"
     style="clip-rule:nonzero;display:inline;overflow:visible;visibility:visible;opacity:1;isolation:auto;mix-blend-mode:normal;color-interpolation:sRGB;color-interpolation-filters:linearRGB;solid-opacity:1;fill:currentColor;fill-opacity:1;fill-rule:nonzero;stroke:none;stroke-width:1.12399995;stroke-linecap:butt;stroke-linejoin:miter;stroke-miterlimit:4;stroke-dasharray:none;stroke-dashoffset:0;stroke-opacity:1;marker:none;marker-start:none;marker-mid:none;marker-end:none;color-rendering:auto;image-rendering:auto;shape-rendering:auto;text-rendering:auto;enable-background:accumulate"
     d="M 11 9 A 5 5 0 0 0 6 14 A 5 5 0 0 0 11 19 A 5 5 0 0 0 16 14 A 5 5 0 0 0 11 9 z M 11 10 A 4 4 0 0 1 15 14 A 4 4 0 0 1 11 18 A 4 4 0 0 1 7 14 A 4 4 0 0 1 11 10 z "
     id="path4148" />
  <path class="ColorScheme-Text"
     inkscape:connector-curvature="0"
     style="fill:currentColor;fill-opacity:1;stroke:none"
     d="M 6,3 6,7 5,7 5,5 4,5 4,7 3,7 l 0,1 16,0 0,-1 -0.02344,0 2e-6,-1.994141 -1,0 0,1.994141 L 17,7 17,3 16,3 16,7 15,7 15,5 14,5 14,7 13,7 13,5 12,5 12,7 11,7 11,5 10,5 10,7 9,7 9,5 8,5 8,7 7,7 7,3 Z"
     id="path4251"
     sodipodi:nodetypes="ccccccccccccccccccccccccccccccccccccc" />
  <circle class="ColorScheme-NegativeText"
     style="clip-rule:nonzero;display:inline;overflow:visible;visibility:visible;opacity:1;isolation:auto;mix-blend-mode:normal;color-interpolation:sRGB;color-interpolation-filters:linearRGB;solid-opacity:1;fill:currentColor;fill-opacity:1;fill-rule:nonzero;stroke:none;stroke-width:1;stroke-linecap:butt;stroke-linejoin:miter;stroke-miterlimit:4;stroke-dasharray:none;stroke-dashoffset:0;stroke-opacity:1;marker:none;marker-start:none;marker-mid:none;marker-end:none;color-rendering:auto;image-rendering:auto;shape-rendering:auto;text-rendering:auto;enable-background:accumulate"
     id="path4148-3-6"
     cx="11"
     cy="14"
     r="2" />
</svg>
