<?xml version="1.0" encoding="UTF-8" standalone="no"?>
<svg
   xmlns:dc="http://purl.org/dc/elements/1.1/"
   xmlns:cc="http://creativecommons.org/ns#"
   xmlns:rdf="http://www.w3.org/1999/02/22-rdf-syntax-ns#"
   xmlns:svg="http://www.w3.org/2000/svg"
   xmlns="http://www.w3.org/2000/svg"
   xmlns:sodipodi="http://sodipodi.sourceforge.net/DTD/sodipodi-0.dtd"
   xmlns:inkscape="http://www.inkscape.org/namespaces/inkscape"
   width="22"
   height="22"
   id="svg2"
   version="1.1"
   inkscape:version="0.91 r13725"
   sodipodi:docname="preview-remove-zone.svg">
  <metadata
     id="metadata10">
    <rdf:RDF>
      <cc:Work
         rdf:about="">
        <dc:format>image/svg+xml</dc:format>
        <dc:type
           rdf:resource="http://purl.org/dc/dcmitype/StillImage" />
        <dc:title />
      </cc:Work>
    </rdf:RDF>
  </metadata>
  <defs
     id="defs4">
    <style
       type="text/css"
       id="current-color-scheme">
      .ColorScheme-Text {
        color:#4d4d4d;
      }
      .ColorScheme-NegativeText {
        color:#da4453;
      }
      </style>
  </defs>
  <sodipodi:namedview
     pagecolor="#ffffff"
     bordercolor="#666666"
     borderopacity="1"
     objecttolerance="10"
     gridtolerance="10"
     guidetolerance="10"
     inkscape:pageopacity="0"
     inkscape:pageshadow="2"
     inkscape:window-width="2560"
     inkscape:window-height="1351"
     id="namedview6"
     showgrid="true"
     showguides="false"
     inkscape:zoom="42.909091"
     inkscape:cx="10.093296"
     inkscape:cy="12.395472"
     inkscape:window-x="0"
     inkscape:window-y="0"
     inkscape:window-maximized="1"
     inkscape:current-layer="svg2"
     inkscape:snap-grids="true">
    <inkscape:grid
       type="xygrid"
       id="grid4138" />
  </sodipodi:namedview>
  <path class="ColorScheme-Text"
     style="fill:currentColor;fill-opacity:1;stroke:none"
     d="M 6.0234375 4.9941406 L 6.0234375 8.9941406 L 5.0234375 8.9941406 L 5.0234375 6.9941406 L 4.0234375 6.9941406 L 4.0234375 8.9941406 L 3.0234375 8.9941406 L 3.0234375 9.9941406 L 19.023438 9.9941406 L 19.023438 8.9941406 L 19 8.9941406 L 19 7 L 18 7 L 18 8.9941406 L 17.023438 8.9941406 L 17.023438 4.9941406 L 16.023438 4.9941406 L 16.023438 8.9941406 L 15.023438 8.9941406 L 15.023438 6.9941406 L 14.023438 6.9941406 L 14.023438 8.9941406 L 13.023438 8.9941406 L 13.023438 6.9941406 L 12.023438 6.9941406 L 12.023438 8.9941406 L 11.023438 8.9941406 L 11.023438 6.9941406 L 10.023438 6.9941406 L 10.023438 8.9941406 L 9.0234375 8.9941406 L 9.0234375 6.9941406 L 8.0234375 6.9941406 L 8.0234375 8.9941406 L 7.0234375 8.9941406 L 7.0234375 4.9941406 L 6.0234375 4.9941406 z M 4 12 L 4 15 L 13 15 L 13 12 L 4 12 z "
     id="path4144" />
  <path class="ColorScheme-NegativeText"
     style="color:currentColor;fill:currentColor;fill-opacity:1;stroke:none"
     d="M 14.707031,12 14,12.707031 15.792969,14.5 14,16.292969 14.707031,17 16.5,15.207031 18.292969,17 19,16.292969 17.207031,14.5 19,12.707031 18.292969,12 16.5,13.792969 14.707031,12 Z"
     id="path6" />
</svg>
