<?xml version="1.0" encoding="UTF-8" standalone="no"?>
<svg
   xmlns:dc="http://purl.org/dc/elements/1.1/"
   xmlns:cc="http://creativecommons.org/ns#"
   xmlns:rdf="http://www.w3.org/1999/02/22-rdf-syntax-ns#"
   xmlns:svg="http://www.w3.org/2000/svg"
   xmlns="http://www.w3.org/2000/svg"
   xmlns:sodipodi="http://sodipodi.sourceforge.net/DTD/sodipodi-0.dtd"
   xmlns:inkscape="http://www.inkscape.org/namespaces/inkscape"
   width="22"
   height="22"
   id="svg2"
   version="1.1"
   inkscape:version="0.91 r13725"
   sodipodi:docname="preview-remove-all.svg">
  <metadata
     id="metadata10">
    <rdf:RDF>
      <cc:Work
         rdf:about="">
        <dc:format>image/svg+xml</dc:format>
        <dc:type
           rdf:resource="http://purl.org/dc/dcmitype/StillImage" />
        <dc:title />
      </cc:Work>
    </rdf:RDF>
  </metadata>
  <defs
     id="defs4">
    <style
       type="text/css"
       id="current-color-scheme">
      .ColorScheme-Text {
        color:#4d4d4d;
      }
      .ColorScheme-NegativeText {
        color:#da4453;
      }
      </style>
  </defs>
  <sodipodi:namedview
     pagecolor="#ffffff"
     bordercolor="#666666"
     borderopacity="1"
     objecttolerance="10"
     gridtolerance="10"
     guidetolerance="10"
     inkscape:pageopacity="0"
     inkscape:pageshadow="2"
     inkscape:window-width="2560"
     inkscape:window-height="1351"
     id="namedview6"
     showgrid="true"
     showguides="false"
     inkscape:zoom="42.909091"
     inkscape:cx="3.7426604"
     inkscape:cy="12.395472"
     inkscape:window-x="0"
     inkscape:window-y="0"
     inkscape:window-maximized="1"
     inkscape:current-layer="svg2"
     inkscape:snap-grids="true">
    <inkscape:grid
       type="xygrid"
       id="grid4138" />
  </sodipodi:namedview>
  <path class="ColorScheme-Text"
     style="fill:currentColor;fill-opacity:1;stroke:none"
     d="m 6.0234375,4.9941406 0,4 -1,0 0,-2 -1,0 0,2 -1,0 0,1 16.0000005,0 0,-1 -0.02344,0 L 19,7 l -1,0 0,1.9941406 -0.976562,0 0,-4 -1,0 0,4 -1,0 0,-2 -1,0 0,2 -1,0 0,-2 -1,0 0,2 -1,0 0,-2 -1,0 0,2 -1.0000005,0 0,-2 -1,0 0,2 -1,0 0,-4 -1,0 z"
     id="path4138" />
  <path
     class="ColorScheme-NegativeText"
     style="color:currentColor;fill:currentColor;fill-opacity:1;stroke:none"
     d="M 9.6964378,12 8.9894068,12.707031 10.782376,14.5 8.9894068,16.292969 9.6964378,17 11.489407,15.207031 13.282376,17 13.989407,16.292969 12.196438,14.5 13.989407,12.707031 13.282376,12 11.489407,13.792969 9.6964378,12 Z"
     id="path6"
     inkscape:connector-curvature="0" />
</svg>
